{
  "accessors": [
    {
      "bufferView": 2,
      "componentType": 5126,
      "count": 7625,
      "max": [
        163.8373260498047,
        294.92218017578125,
        199.43284606933594
      ],
      "min": [
        -163.8372802734375,
        0.0,
        -199.43284606933594
      ],
      "type": "VEC3"
    },
    {
      "bufferView": 2,
      "byteOffset": 91500,
      "componentType": 5126,
      "count": 7625,
      "max": [
        1.0,
        1.0,
        1.0
      ],
      "min": [
        -1.0,
        -0.9999940991401672,
        -1.0
      ],
      "type": "VEC3"
    },
    {
      "bufferView": 3,
      "componentType": 5126,
      "count": 7625,
      "max": [
        1.0,
        0.9998619556427002,
        1.0,
        1.0
      ],
      "min": [
        -1.0,
        -1.0,
        -1.0,
        1.0
      ],
      "type": "VEC4"
    },
    {
      "bufferView": 1,
      "componentType": 5126,
      "count": 7625,
      "max": [
        0.9997559785842896,
        0.9957839846611023
      ],
      "min": [
        0.00024399999529123306,
        0.00024399999529123306
      ],
      "type": "VEC2"
    },
    {
      "bufferView": 1,
      "byteOffset": 61000,
      "componentType": 5126,
      "count": 7625,
      "max": [
        0.9901959896087646,
        0.9571170210838318
      ],
      "min": [
        0.00980400014668703,
        0.00947600044310093
      ],
      "type": "VEC2"
    },
    {
      "bufferView": 0,
      "componentType": 5125,
      "count": 38796,
      "type": "SCALAR"
    }
  ],
  "asset": {
    "extras": {
      "author": "Allan-Jay Branscombe (https://sketchfab.com/AllanJayBranscombe)",
      "license": "CC-BY-4.0 (http://creativecommons.org/licenses/by/4.0/)",
      "source": "https://sketchfab.com/3d-models/game-ready-double-bed-eeafb24592f249f08f9576c2511272d8",
      "title": "Game Ready - Double Bed"
    },
    "generator": "Sketchfab-16.29.0",
    "version": "2.0"
  },
  "bufferViews": [
    {
      "buffer": 0,
      "byteLength": 155184,
      "name": "floatBufferViews",
      "target": 34963
    },
    {
      "buffer": 0,
      "byteLength": 122000,
      "byteOffset": 155184,
      "byteStride": 8,
      "name": "floatBufferViews",
      "target": 34962
    },
    {
      "buffer": 0,
      "byteLength": 183000,
      "byteOffset": 277184,
      "byteStride": 12,
      "name": "floatBufferViews",
      "target": 34962
    },
    {
      "buffer": 0,
      "byteLength": 122000,
      "byteOffset": 460184,
      "byteStride": 16,
      "name": "floatBufferViews",
      "target": 34962
    }
  ],
  "buffers": [
    {
      "byteLength": 582184,
      "uri": "scene.bin"
    }
  ],
  "images": [
    {
      "uri": "textures/M_Kingsize_Bed_baseColor.jpeg"
    },
    {
      "uri": "textures/M_Kingsize_Bed_metallicRoughness.png"
    },
    {
      "uri": "textures/M_Kingsize_Bed_normal.png"
    }
  ],
  "materials": [
    {
      "doubleSided": true,
      "name": "M_Kingsize_Bed",
      "normalTexture": {
        "index": 2
      },
      "occlusionTexture": {
        "index": 1
      },
      "pbrMetallicRoughness": {
        "baseColorTexture": {
          "index": 0
        },
        "metallicRoughnessTexture": {
          "index": 1
        }
      }
    }
  ],
  "meshes": [
    {
      "name": "defaultMaterial",
      "primitives": [
        {
          "attributes": {
            "NORMAL": 1,
            "POSITION": 0,
            "TANGENT": 2,
            "TEXCOORD_0": 3,
            "TEXCOORD_1": 4
          },
          "indices": 5,
          "material": 0,
          "mode": 4
        }
      ]
    }
  ],
  "nodes": [
    {
      "children": [
        1
      ],
      "matrix": [
        1.0,
        0.0,
        0.0,
        0.0,
        0.0,
        2.220446049250313e-16,
        -1.0,
        0.0,
        0.0,
        1.0,
        2.220446049250313e-16,
        0.0,
        0.0,
        0.0,
        0.0,
        1.0
      ],
      "name": "Sketchfab_model"
    },
    {
      "children": [
        2
      ],
      "matrix": [
        1.0,
        0.0,
        0.0,
        0.0,
        0.0,
        -4.371139006309477e-08,
        0.999999999999999,
        0.0,
        0.0,
        -0.999999999999999,
        -4.371139006309477e-08,
        0.0,
        0.0,
        0.0,
        0.0,
        1.0
      ],
      "name": "Collada visual scene group"
    },
    {
      "children": [
        3
      ],
      "name": "SM_Kingsize_Bed"
    },
    {
      "mesh": 0,
      "name": "defaultMaterial"
    }
  ],
  "samplers": [
    {
      "magFilter": 9729,
      "minFilter": 9987,
      "wrapS": 10497,
      "wrapT": 10497
    }
  ],
  "scene": 0,
  "scenes": [
    {
      "name": "Sketchfab_Scene",
      "nodes": [
        0
      ]
    }
  ],
  "textures": [
    {
      "sampler": 0,
      "source": 0
    },
    {
      "sampler": 0,
      "source": 1
    },
    {
      "sampler": 0,
      "source": 2
    }
  ]
}
